<svg width="20" height="20" viewBox="0 0 20 20" fill="none" xmlns="http://www.w3.org/2000/svg">
<path d="M18.4444 20L11.4444 13C10.8889 13.4444 10.25 13.7963 9.52778 14.0556C8.80556 14.3148 8.03704 14.4444 7.22222 14.4444C5.2037 14.4444 3.49556 13.7452 2.09778 12.3467C0.7 10.9481 0.000740741 9.24 0 7.22222C0 5.2037 0.699259 3.49556 2.09778 2.09778C3.4963 0.7 5.20444 0.000740741 7.22222 0C9.24074 0 10.9489 0.699259 12.3467 2.09778C13.7444 3.4963 14.4437 5.20444 14.4444 7.22222C14.4444 8.03704 14.3148 8.80556 14.0556 9.52778C13.7963 10.25 13.4444 10.8889 13 11.4444L20 18.4444L18.4444 20ZM7.22222 12.2222C8.61111 12.2222 9.79185 11.7359 10.7644 10.7633C11.737 9.79074 12.223 8.61037 12.2222 7.22222C12.2222 5.83333 11.7359 4.65259 10.7633 3.68C9.79074 2.70741 8.61037 2.22148 7.22222 2.22222C5.83333 2.22222 4.65259 2.70852 3.68 3.68111C2.70741 4.6537 2.22148 5.83407 2.22222 7.22222C2.22222 8.61111 2.70852 9.79185 3.68111 10.7644C4.6537 11.737 5.83407 12.223 7.22222 12.2222Z" fill="#717171"/>
</svg>
