<svg width="15" height="20" viewBox="0 0 15 20" fill="none" xmlns="http://www.w3.org/2000/svg">
<path d="M11.25 9.6875V10.7812C11.25 11.0391 11.0391 11.25 10.7812 11.25H4.21875C3.96094 11.25 3.75 11.0391 3.75 10.7812V9.6875C3.75 9.42969 3.96094 9.21875 4.21875 9.21875H10.7812C11.0391 9.21875 11.25 9.42969 11.25 9.6875ZM10.7812 12.5H4.21875C3.96094 12.5 3.75 12.7109 3.75 12.9688V14.0625C3.75 14.3203 3.96094 14.5312 4.21875 14.5312H10.7812C11.0391 14.5312 11.25 14.3203 11.25 14.0625V12.9688C11.25 12.7109 11.0391 12.5 10.7812 12.5ZM15 5.15234V18.125C15 19.1602 14.1602 20 13.125 20H1.875C0.839844 20 0 19.1602 0 18.125V1.875C0 0.839844 0.839844 0 1.875 0H9.84766C10.3438 0 10.8203 0.199219 11.1719 0.550781L14.4492 3.82812C14.8008 4.17578 15 4.65625 15 5.15234ZM10 2.02734V5H12.9727L10 2.02734ZM13.125 18.125V6.875H9.0625C8.54297 6.875 8.125 6.45703 8.125 5.9375V1.875H1.875V18.125H13.125Z" fill="#717171"/>
</svg>
